<?xml version="1.0" encoding="UTF-8" standalone="no"?>
<!DOCTYPE svg PUBLIC "-//W3C//DTD SVG 1.1//EN"
 "http://www.w3.org/Graphics/SVG/1.1/DTD/svg11.dtd">
<!-- Generated by graphviz version 2.47.0 (20210316.0004)
 -->
<!-- Title: dependencies Pages: 1 -->
<svg width="790pt" height="284pt"
 viewBox="0.00 0.00 790.00 284.00" xmlns="http://www.w3.org/2000/svg" xmlns:xlink="http://www.w3.org/1999/xlink">
<g id="graph0" class="graph" transform="scale(1 1) rotate(0) translate(4 280)">
<title>dependencies</title>
<polygon fill="white" stroke="transparent" points="-4,4 -4,-280 786,-280 786,4 -4,4"/>
<text text-anchor="start" x="370.01" y="-42.4" font-family="Times-12" font-weight="bold" font-size="14.00">Legend</text>
<polygon fill="#ffffb3" stroke="transparent" points="157,-10 157,-30 177,-30 177,-10 157,-10"/>
<text text-anchor="start" x="180.63" y="-15.4" font-family="Times-12" font-size="14.00"> &#160;Declarations</text>
<polygon fill="#8dd3c7" stroke="transparent" points="270,-10 270,-30 290,-30 290,-10 270,-10"/>
<text text-anchor="start" x="293.73" y="-15.4" font-family="Times-12" font-size="14.00"> &#160;Module</text>
<polygon fill="#80b1d3" stroke="transparent" points="356,-10 356,-30 376,-30 376,-10 356,-10"/>
<text text-anchor="start" x="379.78" y="-15.4" font-family="Times-12" font-size="14.00"> &#160;Bootstrap</text>
<polygon fill="#fdb462" stroke="transparent" points="453,-10 453,-30 473,-30 473,-10 453,-10"/>
<text text-anchor="start" x="476.67" y="-15.4" font-family="Times-12" font-size="14.00"> &#160;Providers</text>
<polygon fill="#fb8072" stroke="transparent" points="549,-10 549,-30 569,-30 569,-10 549,-10"/>
<text text-anchor="start" x="572.73" y="-15.4" font-family="Times-12" font-size="14.00"> &#160;Exports</text>
<g id="clust1" class="cluster">
<title>cluster_AppModule</title>
<polygon fill="none" stroke="black" stroke-dasharray="1,5" points="8,-70 8,-268 774,-268 774,-70 8,-70"/>
</g>
<g id="clust8" class="cluster">
<title>cluster_AppModule_bootstrap</title>
<polygon fill="none" stroke="black" points="311,-208 311,-260 435,-260 435,-208 311,-208"/>
</g>
<g id="clust2" class="cluster">
<title>cluster_AppModule_declarations</title>
<polygon fill="none" stroke="black" points="381,-78 381,-130 766,-130 766,-78 381,-78"/>
</g>
<g id="clust6" class="cluster">
<title>cluster_AppModule_imports</title>
<polygon fill="none" stroke="black" points="16,-78 16,-130 373,-130 373,-78 16,-78"/>
</g>
<!-- AppComponent -->
<g id="node1" class="node">
<title>AppComponent</title>
<polygon fill="#ffffb3" stroke="black" points="757.94,-122 652.06,-122 652.06,-86 757.94,-86 757.94,-122"/>
<text text-anchor="middle" x="705" y="-99.8" font-family="Times,serif" font-size="14.00">AppComponent</text>
</g>
<!-- AppModule -->
<g id="node4" class="node">
<title>AppModule</title>
<polygon fill="#8dd3c7" stroke="black" points="414.66,-187 411.66,-191 390.66,-191 387.66,-187 331.34,-187 331.34,-151 414.66,-151 414.66,-187"/>
<text text-anchor="middle" x="373" y="-164.8" font-family="Times,serif" font-size="14.00">AppModule</text>
</g>
<!-- AppComponent&#45;&gt;AppModule -->
<g id="edge1" class="edge">
<title>AppComponent&#45;&gt;AppModule</title>
<path fill="none" stroke="black" d="M705,-122.28C705,-143.32 705,-175 705,-175 705,-175 424.71,-175 424.71,-175"/>
<polygon fill="black" stroke="black" points="424.71,-171.5 414.71,-175 424.71,-178.5 424.71,-171.5"/>
</g>
<!-- LoginComponent -->
<g id="node2" class="node">
<title>LoginComponent</title>
<polygon fill="#ffffb3" stroke="black" points="634.28,-122 519.72,-122 519.72,-86 634.28,-86 634.28,-122"/>
<text text-anchor="middle" x="577" y="-99.8" font-family="Times,serif" font-size="14.00">LoginComponent</text>
</g>
<!-- LoginComponent&#45;&gt;AppModule -->
<g id="edge2" class="edge">
<title>LoginComponent&#45;&gt;AppModule</title>
<path fill="none" stroke="black" d="M577,-122.02C577,-139.37 577,-163 577,-163 577,-163 424.77,-163 424.77,-163"/>
<polygon fill="black" stroke="black" points="424.77,-159.5 414.77,-163 424.77,-166.5 424.77,-159.5"/>
</g>
<!-- ToastComponent -->
<g id="node3" class="node">
<title>ToastComponent</title>
<polygon fill="#ffffb3" stroke="black" points="501.44,-122 388.56,-122 388.56,-86 501.44,-86 501.44,-122"/>
<text text-anchor="middle" x="445" y="-99.8" font-family="Times,serif" font-size="14.00">ToastComponent</text>
</g>
<!-- ToastComponent&#45;&gt;AppModule -->
<g id="edge3" class="edge">
<title>ToastComponent&#45;&gt;AppModule</title>
<path fill="none" stroke="black" d="M401.81,-122.11C401.81,-122.11 401.81,-140.99 401.81,-140.99"/>
<polygon fill="black" stroke="black" points="398.31,-140.99 401.81,-150.99 405.31,-140.99 398.31,-140.99"/>
</g>
<!-- AppComponent  -->
<g id="node8" class="node">
<title>AppComponent </title>
<polygon fill="#80b1d3" stroke="black" points="427.44,-252 318.56,-252 318.56,-216 427.44,-216 427.44,-252"/>
<text text-anchor="middle" x="373" y="-229.8" font-family="Times,serif" font-size="14.00">AppComponent </text>
</g>
<!-- AppModule&#45;&gt;AppComponent  -->
<g id="edge7" class="edge">
<title>AppModule&#45;&gt;AppComponent </title>
<path fill="none" stroke="black" stroke-dasharray="1,5" d="M373,-187.11C373,-187.11 373,-205.99 373,-205.99"/>
<polygon fill="black" stroke="black" points="369.5,-205.99 373,-215.99 376.5,-205.99 369.5,-205.99"/>
</g>
<!-- AppRoutingModule -->
<g id="node5" class="node">
<title>AppRoutingModule</title>
<polygon fill="#8dd3c7" stroke="black" points="365.27,-122 362.27,-126 341.27,-126 338.27,-122 236.73,-122 236.73,-86 365.27,-86 365.27,-122"/>
<text text-anchor="middle" x="301" y="-99.8" font-family="Times,serif" font-size="14.00">AppRoutingModule</text>
</g>
<!-- AppRoutingModule&#45;&gt;AppModule -->
<g id="edge4" class="edge">
<title>AppRoutingModule&#45;&gt;AppModule</title>
<path fill="none" stroke="black" d="M348.28,-122.11C348.28,-122.11 348.28,-140.99 348.28,-140.99"/>
<polygon fill="black" stroke="black" points="344.78,-140.99 348.28,-150.99 351.78,-140.99 344.78,-140.99"/>
</g>
<!-- CoreModule -->
<g id="node6" class="node">
<title>CoreModule</title>
<polygon fill="#8dd3c7" stroke="black" points="218.26,-122 215.26,-126 194.26,-126 191.26,-122 131.74,-122 131.74,-86 218.26,-86 218.26,-122"/>
<text text-anchor="middle" x="175" y="-99.8" font-family="Times,serif" font-size="14.00">CoreModule</text>
</g>
<!-- CoreModule&#45;&gt;AppModule -->
<g id="edge5" class="edge">
<title>CoreModule&#45;&gt;AppModule</title>
<path fill="none" stroke="black" d="M175,-122.02C175,-139.37 175,-163 175,-163 175,-163 321.01,-163 321.01,-163"/>
<polygon fill="black" stroke="black" points="321.01,-166.5 331.01,-163 321.01,-159.5 321.01,-166.5"/>
</g>
<!-- MainModule -->
<g id="node7" class="node">
<title>MainModule</title>
<polygon fill="#8dd3c7" stroke="black" points="113.6,-122 110.6,-126 89.6,-126 86.6,-122 24.4,-122 24.4,-86 113.6,-86 113.6,-122"/>
<text text-anchor="middle" x="69" y="-99.8" font-family="Times,serif" font-size="14.00">MainModule</text>
</g>
<!-- MainModule&#45;&gt;AppModule -->
<g id="edge6" class="edge">
<title>MainModule&#45;&gt;AppModule</title>
<path fill="none" stroke="black" d="M69,-122.28C69,-143.32 69,-175 69,-175 69,-175 321.05,-175 321.05,-175"/>
<polygon fill="black" stroke="black" points="321.05,-178.5 331.05,-175 321.05,-171.5 321.05,-178.5"/>
</g>
</g>
</svg>
