<?xml version="1.0" encoding="UTF-8" standalone="no"?>
<!DOCTYPE svg PUBLIC "-//W3C//DTD SVG 1.1//EN"
 "http://www.w3.org/Graphics/SVG/1.1/DTD/svg11.dtd">
<!-- Generated by graphviz version 2.47.0 (20210316.0004)
 -->
<!-- Title: dependencies Pages: 1 -->
<svg width="880pt" height="284pt"
 viewBox="0.00 0.00 880.00 284.00" xmlns="http://www.w3.org/2000/svg" xmlns:xlink="http://www.w3.org/1999/xlink">
<g id="graph0" class="graph" transform="scale(1 1) rotate(0) translate(4 280)">
<title>dependencies</title>
<polygon fill="white" stroke="transparent" points="-4,4 -4,-280 876,-280 876,4 -4,4"/>
<text text-anchor="start" x="415.01" y="-42.4" font-family="Times-12" font-weight="bold" font-size="14.00">Legend</text>
<polygon fill="#ffffb3" stroke="transparent" points="202,-10 202,-30 222,-30 222,-10 202,-10"/>
<text text-anchor="start" x="225.63" y="-15.4" font-family="Times-12" font-size="14.00"> &#160;Declarations</text>
<polygon fill="#8dd3c7" stroke="transparent" points="315,-10 315,-30 335,-30 335,-10 315,-10"/>
<text text-anchor="start" x="338.73" y="-15.4" font-family="Times-12" font-size="14.00"> &#160;Module</text>
<polygon fill="#80b1d3" stroke="transparent" points="401,-10 401,-30 421,-30 421,-10 401,-10"/>
<text text-anchor="start" x="424.78" y="-15.4" font-family="Times-12" font-size="14.00"> &#160;Bootstrap</text>
<polygon fill="#fdb462" stroke="transparent" points="498,-10 498,-30 518,-30 518,-10 498,-10"/>
<text text-anchor="start" x="521.67" y="-15.4" font-family="Times-12" font-size="14.00"> &#160;Providers</text>
<polygon fill="#fb8072" stroke="transparent" points="594,-10 594,-30 614,-30 614,-10 594,-10"/>
<text text-anchor="start" x="617.73" y="-15.4" font-family="Times-12" font-size="14.00"> &#160;Exports</text>
<g id="clust1" class="cluster">
<title>cluster_MainModule</title>
<polygon fill="none" stroke="black" stroke-dasharray="1,5" points="8,-70 8,-268 864,-268 864,-70 8,-70"/>
</g>
<g id="clust7" class="cluster">
<title>cluster_MainModule_imports</title>
<polygon fill="none" stroke="black" points="602,-78 602,-130 856,-130 856,-78 602,-78"/>
</g>
<g id="clust8" class="cluster">
<title>cluster_MainModule_exports</title>
<polygon fill="none" stroke="black" points="367,-208 367,-260 521,-260 521,-208 367,-208"/>
</g>
<g id="clust2" class="cluster">
<title>cluster_MainModule_declarations</title>
<polygon fill="none" stroke="black" points="16,-78 16,-130 594,-130 594,-78 16,-78"/>
</g>
<!-- ConsultaComponent -->
<g id="node1" class="node">
<title>ConsultaComponent</title>
<polygon fill="#ffffb3" stroke="black" points="585.61,-122 454.39,-122 454.39,-86 585.61,-86 585.61,-122"/>
<text text-anchor="middle" x="520" y="-99.8" font-family="Times,serif" font-size="14.00">ConsultaComponent</text>
</g>
<!-- MainModule -->
<g id="node5" class="node">
<title>MainModule</title>
<polygon fill="#8dd3c7" stroke="black" points="488.6,-187 485.6,-191 464.6,-191 461.6,-187 399.4,-187 399.4,-151 488.6,-151 488.6,-187"/>
<text text-anchor="middle" x="444" y="-164.8" font-family="Times,serif" font-size="14.00">MainModule</text>
</g>
<!-- ConsultaComponent&#45;&gt;MainModule -->
<g id="edge1" class="edge">
<title>ConsultaComponent&#45;&gt;MainModule</title>
<path fill="none" stroke="black" d="M471.5,-122.11C471.5,-122.11 471.5,-140.99 471.5,-140.99"/>
<polygon fill="black" stroke="black" points="468,-140.99 471.5,-150.99 475,-140.99 468,-140.99"/>
</g>
<!-- ExemplosComponent -->
<g id="node2" class="node">
<title>ExemplosComponent</title>
<polygon fill="#ffffb3" stroke="black" points="436.83,-122 299.17,-122 299.17,-86 436.83,-86 436.83,-122"/>
<text text-anchor="middle" x="368" y="-99.8" font-family="Times,serif" font-size="14.00">ExemplosComponent</text>
</g>
<!-- ExemplosComponent&#45;&gt;MainModule -->
<g id="edge2" class="edge">
<title>ExemplosComponent&#45;&gt;MainModule</title>
<path fill="none" stroke="black" d="M418.06,-122.11C418.06,-122.11 418.06,-140.99 418.06,-140.99"/>
<polygon fill="black" stroke="black" points="414.56,-140.99 418.06,-150.99 421.56,-140.99 414.56,-140.99"/>
</g>
<!-- HomeComponent -->
<g id="node3" class="node">
<title>HomeComponent</title>
<polygon fill="#ffffb3" stroke="black" points="281.55,-122 166.45,-122 166.45,-86 281.55,-86 281.55,-122"/>
<text text-anchor="middle" x="224" y="-99.8" font-family="Times,serif" font-size="14.00">HomeComponent</text>
</g>
<!-- HomeComponent&#45;&gt;MainModule -->
<g id="edge3" class="edge">
<title>HomeComponent&#45;&gt;MainModule</title>
<path fill="none" stroke="black" d="M224,-122.02C224,-139.37 224,-163 224,-163 224,-163 389.21,-163 389.21,-163"/>
<polygon fill="black" stroke="black" points="389.21,-166.5 399.21,-163 389.21,-159.5 389.21,-166.5"/>
</g>
<!-- SuporteComponent -->
<g id="node4" class="node">
<title>SuporteComponent</title>
<polygon fill="#ffffb3" stroke="black" points="148.38,-122 23.62,-122 23.62,-86 148.38,-86 148.38,-122"/>
<text text-anchor="middle" x="86" y="-99.8" font-family="Times,serif" font-size="14.00">SuporteComponent</text>
</g>
<!-- SuporteComponent&#45;&gt;MainModule -->
<g id="edge4" class="edge">
<title>SuporteComponent&#45;&gt;MainModule</title>
<path fill="none" stroke="black" d="M86,-122.28C86,-143.32 86,-175 86,-175 86,-175 389.38,-175 389.38,-175"/>
<polygon fill="black" stroke="black" points="389.38,-178.5 399.38,-175 389.38,-171.5 389.38,-178.5"/>
</g>
<!-- MainRoutingModule  -->
<g id="node8" class="node">
<title>MainRoutingModule </title>
<polygon fill="#fb8072" stroke="black" points="512.72,-252 375.28,-252 375.28,-216 512.72,-216 512.72,-252"/>
<text text-anchor="middle" x="444" y="-229.8" font-family="Times,serif" font-size="14.00">MainRoutingModule </text>
</g>
<!-- MainModule&#45;&gt;MainRoutingModule  -->
<g id="edge7" class="edge">
<title>MainModule&#45;&gt;MainRoutingModule </title>
<path fill="none" stroke="black" stroke-dasharray="5,2" d="M444,-187.11C444,-187.11 444,-205.99 444,-205.99"/>
<polygon fill="black" stroke="black" points="440.5,-205.99 444,-215.99 447.5,-205.99 440.5,-205.99"/>
</g>
<!-- CoreModule -->
<g id="node6" class="node">
<title>CoreModule</title>
<polygon fill="#8dd3c7" stroke="black" points="848.26,-122 845.26,-126 824.26,-126 821.26,-122 761.74,-122 761.74,-86 848.26,-86 848.26,-122"/>
<text text-anchor="middle" x="805" y="-99.8" font-family="Times,serif" font-size="14.00">CoreModule</text>
</g>
<!-- CoreModule&#45;&gt;MainModule -->
<g id="edge5" class="edge">
<title>CoreModule&#45;&gt;MainModule</title>
<path fill="none" stroke="black" d="M805,-122.28C805,-143.32 805,-175 805,-175 805,-175 498.63,-175 498.63,-175"/>
<polygon fill="black" stroke="black" points="498.63,-171.5 488.63,-175 498.63,-178.5 498.63,-171.5"/>
</g>
<!-- MainRoutingModule -->
<g id="node7" class="node">
<title>MainRoutingModule</title>
<polygon fill="#8dd3c7" stroke="black" points="744.22,-122 741.22,-126 720.22,-126 717.22,-122 609.78,-122 609.78,-86 744.22,-86 744.22,-122"/>
<text text-anchor="middle" x="677" y="-99.8" font-family="Times,serif" font-size="14.00">MainRoutingModule</text>
</g>
<!-- MainRoutingModule&#45;&gt;MainModule -->
<g id="edge6" class="edge">
<title>MainRoutingModule&#45;&gt;MainModule</title>
<path fill="none" stroke="black" d="M677,-122.02C677,-139.37 677,-163 677,-163 677,-163 498.65,-163 498.65,-163"/>
<polygon fill="black" stroke="black" points="498.65,-159.5 488.65,-163 498.65,-166.5 498.65,-159.5"/>
</g>
</g>
</svg>
