<?xml version="1.0" encoding="UTF-8" standalone="no"?>
<!DOCTYPE svg PUBLIC "-//W3C//DTD SVG 1.1//EN"
 "http://www.w3.org/Graphics/SVG/1.1/DTD/svg11.dtd">
<!-- Generated by graphviz version 2.47.0 (20210316.0004)
 -->
<!-- Title: dependencies Pages: 1 -->
<svg width="1554pt" height="284pt"
 viewBox="0.00 0.00 1554.00 284.00" xmlns="http://www.w3.org/2000/svg" xmlns:xlink="http://www.w3.org/1999/xlink">
<g id="graph0" class="graph" transform="scale(1 1) rotate(0) translate(4 280)">
<title>dependencies</title>
<polygon fill="white" stroke="transparent" points="-4,4 -4,-280 1550,-280 1550,4 -4,4"/>
<text text-anchor="start" x="752.01" y="-42.4" font-family="Times-12" font-weight="bold" font-size="14.00">Legend</text>
<polygon fill="#ffffb3" stroke="transparent" points="539,-10 539,-30 559,-30 559,-10 539,-10"/>
<text text-anchor="start" x="562.63" y="-15.4" font-family="Times-12" font-size="14.00"> &#160;Declarations</text>
<polygon fill="#8dd3c7" stroke="transparent" points="652,-10 652,-30 672,-30 672,-10 652,-10"/>
<text text-anchor="start" x="675.73" y="-15.4" font-family="Times-12" font-size="14.00"> &#160;Module</text>
<polygon fill="#80b1d3" stroke="transparent" points="738,-10 738,-30 758,-30 758,-10 738,-10"/>
<text text-anchor="start" x="761.78" y="-15.4" font-family="Times-12" font-size="14.00"> &#160;Bootstrap</text>
<polygon fill="#fdb462" stroke="transparent" points="835,-10 835,-30 855,-30 855,-10 835,-10"/>
<text text-anchor="start" x="858.67" y="-15.4" font-family="Times-12" font-size="14.00"> &#160;Providers</text>
<polygon fill="#fb8072" stroke="transparent" points="931,-10 931,-30 951,-30 951,-10 931,-10"/>
<text text-anchor="start" x="954.73" y="-15.4" font-family="Times-12" font-size="14.00"> &#160;Exports</text>
<g id="clust1" class="cluster">
<title>cluster_ComponentsModule</title>
<polygon fill="none" stroke="black" stroke-dasharray="1,5" points="8,-70 8,-268 1538,-268 1538,-70 8,-70"/>
</g>
<g id="clust12" class="cluster">
<title>cluster_ComponentsModule_imports</title>
<polygon fill="none" stroke="black" points="1428,-78 1428,-130 1530,-130 1530,-78 1428,-78"/>
</g>
<g id="clust2" class="cluster">
<title>cluster_ComponentsModule_declarations</title>
<polygon fill="none" stroke="black" points="16,-78 16,-130 1420,-130 1420,-78 16,-78"/>
</g>
<g id="clust13" class="cluster">
<title>cluster_ComponentsModule_exports</title>
<polygon fill="none" stroke="black" points="55,-208 55,-260 1491,-260 1491,-208 55,-208"/>
</g>
<!-- ConfirmDialogComponent -->
<g id="node1" class="node">
<title>ConfirmDialogComponent</title>
<polygon fill="#ffffb3" stroke="black" points="1412.37,-122 1245.63,-122 1245.63,-86 1412.37,-86 1412.37,-122"/>
<text text-anchor="middle" x="1329" y="-99.8" font-family="Times,serif" font-size="14.00">ConfirmDialogComponent</text>
</g>
<!-- ComponentsModule -->
<g id="node10" class="node">
<title>ComponentsModule</title>
<polygon fill="#8dd3c7" stroke="black" points="808.33,-187 805.33,-191 784.33,-191 781.33,-187 677.67,-187 677.67,-151 808.33,-151 808.33,-187"/>
<text text-anchor="middle" x="743" y="-164.8" font-family="Times,serif" font-size="14.00">ComponentsModule</text>
</g>
<!-- ConfirmDialogComponent&#45;&gt;ComponentsModule -->
<g id="edge1" class="edge">
<title>ConfirmDialogComponent&#45;&gt;ComponentsModule</title>
<path fill="none" stroke="black" d="M1270.26,-122.02C1270.26,-139.37 1270.26,-163 1270.26,-163 1270.26,-163 818.18,-163 818.18,-163"/>
<polygon fill="black" stroke="black" points="818.18,-159.5 808.18,-163 818.18,-166.5 818.18,-159.5"/>
</g>
<!-- DefaultLoginLayoutComponent -->
<g id="node2" class="node">
<title>DefaultLoginLayoutComponent</title>
<polygon fill="#ffffb3" stroke="black" points="1227.41,-122 1030.59,-122 1030.59,-86 1227.41,-86 1227.41,-122"/>
<text text-anchor="middle" x="1129" y="-99.8" font-family="Times,serif" font-size="14.00">DefaultLoginLayoutComponent</text>
</g>
<!-- DefaultLoginLayoutComponent&#45;&gt;ComponentsModule -->
<g id="edge2" class="edge">
<title>DefaultLoginLayoutComponent&#45;&gt;ComponentsModule</title>
<path fill="none" stroke="black" d="M1053.99,-122.01C1053.99,-138.05 1053.99,-159 1053.99,-159 1053.99,-159 818.19,-159 818.19,-159"/>
<polygon fill="black" stroke="black" points="818.19,-155.5 808.19,-159 818.19,-162.5 818.19,-155.5"/>
</g>
<!-- ErrorComponent -->
<g id="node3" class="node">
<title>ErrorComponent</title>
<polygon fill="#ffffb3" stroke="black" points="1012.37,-122 901.63,-122 901.63,-86 1012.37,-86 1012.37,-122"/>
<text text-anchor="middle" x="957" y="-99.8" font-family="Times,serif" font-size="14.00">ErrorComponent</text>
</g>
<!-- ErrorComponent&#45;&gt;ComponentsModule -->
<g id="edge3" class="edge">
<title>ErrorComponent&#45;&gt;ComponentsModule</title>
<path fill="none" stroke="black" d="M923.13,-122.12C923.13,-136.78 923.13,-155 923.13,-155 923.13,-155 818.29,-155 818.29,-155"/>
<polygon fill="black" stroke="black" points="818.29,-151.5 808.29,-155 818.29,-158.5 818.29,-151.5"/>
</g>
<!-- FooterComponent -->
<g id="node4" class="node">
<title>FooterComponent</title>
<polygon fill="#ffffb3" stroke="black" points="883.88,-122 766.12,-122 766.12,-86 883.88,-86 883.88,-122"/>
<text text-anchor="middle" x="825" y="-99.8" font-family="Times,serif" font-size="14.00">FooterComponent</text>
</g>
<!-- FooterComponent&#45;&gt;ComponentsModule -->
<g id="edge4" class="edge">
<title>FooterComponent&#45;&gt;ComponentsModule</title>
<path fill="none" stroke="black" d="M787.11,-122.11C787.11,-122.11 787.11,-140.99 787.11,-140.99"/>
<polygon fill="black" stroke="black" points="783.61,-140.99 787.11,-150.99 790.61,-140.99 783.61,-140.99"/>
</g>
<!-- HeaderComponent -->
<g id="node5" class="node">
<title>HeaderComponent</title>
<polygon fill="#ffffb3" stroke="black" points="747.74,-122 626.26,-122 626.26,-86 747.74,-86 747.74,-122"/>
<text text-anchor="middle" x="687" y="-99.8" font-family="Times,serif" font-size="14.00">HeaderComponent</text>
</g>
<!-- HeaderComponent&#45;&gt;ComponentsModule -->
<g id="edge5" class="edge">
<title>HeaderComponent&#45;&gt;ComponentsModule</title>
<path fill="none" stroke="black" d="M712.85,-122.11C712.85,-122.11 712.85,-140.99 712.85,-140.99"/>
<polygon fill="black" stroke="black" points="709.35,-140.99 712.85,-150.99 716.35,-140.99 709.35,-140.99"/>
</g>
<!-- LoadingComponent -->
<g id="node6" class="node">
<title>LoadingComponent</title>
<polygon fill="#ffffb3" stroke="black" points="607.99,-122 480.01,-122 480.01,-86 607.99,-86 607.99,-122"/>
<text text-anchor="middle" x="544" y="-99.8" font-family="Times,serif" font-size="14.00">LoadingComponent</text>
</g>
<!-- LoadingComponent&#45;&gt;ComponentsModule -->
<g id="edge6" class="edge">
<title>LoadingComponent&#45;&gt;ComponentsModule</title>
<path fill="none" stroke="black" d="M569.62,-122.12C569.62,-136.78 569.62,-155 569.62,-155 569.62,-155 667.45,-155 667.45,-155"/>
<polygon fill="black" stroke="black" points="667.45,-158.5 677.45,-155 667.45,-151.5 667.45,-158.5"/>
</g>
<!-- NavbarComponent -->
<g id="node7" class="node">
<title>NavbarComponent</title>
<polygon fill="#ffffb3" stroke="black" points="462.03,-122 339.97,-122 339.97,-86 462.03,-86 462.03,-122"/>
<text text-anchor="middle" x="401" y="-99.8" font-family="Times,serif" font-size="14.00">NavbarComponent</text>
</g>
<!-- NavbarComponent&#45;&gt;ComponentsModule -->
<g id="edge7" class="edge">
<title>NavbarComponent&#45;&gt;ComponentsModule</title>
<path fill="none" stroke="black" d="M424.62,-122.01C424.62,-138.05 424.62,-159 424.62,-159 424.62,-159 667.8,-159 667.8,-159"/>
<polygon fill="black" stroke="black" points="667.8,-162.5 677.8,-159 667.8,-155.5 667.8,-162.5"/>
</g>
<!-- PrimaryInputComponent -->
<g id="node8" class="node">
<title>PrimaryInputComponent</title>
<polygon fill="#ffffb3" stroke="black" points="321.98,-122 166.02,-122 166.02,-86 321.98,-86 321.98,-122"/>
<text text-anchor="middle" x="244" y="-99.8" font-family="Times,serif" font-size="14.00">PrimaryInputComponent</text>
</g>
<!-- PrimaryInputComponent&#45;&gt;ComponentsModule -->
<g id="edge8" class="edge">
<title>PrimaryInputComponent&#45;&gt;ComponentsModule</title>
<path fill="none" stroke="black" d="M265.62,-122.02C265.62,-139.37 265.62,-163 265.62,-163 265.62,-163 667.62,-163 667.62,-163"/>
<polygon fill="black" stroke="black" points="667.62,-166.5 677.62,-163 667.62,-159.5 667.62,-166.5"/>
</g>
<!-- SidebarComponent -->
<g id="node9" class="node">
<title>SidebarComponent</title>
<polygon fill="#ffffb3" stroke="black" points="148.1,-122 23.9,-122 23.9,-86 148.1,-86 148.1,-122"/>
<text text-anchor="middle" x="86" y="-99.8" font-family="Times,serif" font-size="14.00">SidebarComponent</text>
</g>
<!-- SidebarComponent&#45;&gt;ComponentsModule -->
<g id="edge9" class="edge">
<title>SidebarComponent&#45;&gt;ComponentsModule</title>
<path fill="none" stroke="black" d="M105.62,-122.22C105.62,-140.83 105.62,-167 105.62,-167 105.62,-167 667.79,-167 667.79,-167"/>
<polygon fill="black" stroke="black" points="667.79,-170.5 677.79,-167 667.78,-163.5 667.79,-170.5"/>
</g>
<!-- ConfirmDialogComponent  -->
<g id="node12" class="node">
<title>ConfirmDialogComponent </title>
<polygon fill="#fb8072" stroke="black" points="1483.37,-252 1312.63,-252 1312.63,-216 1483.37,-216 1483.37,-252"/>
<text text-anchor="middle" x="1398" y="-229.8" font-family="Times,serif" font-size="14.00">ConfirmDialogComponent </text>
</g>
<!-- ComponentsModule&#45;&gt;ConfirmDialogComponent  -->
<g id="edge11" class="edge">
<title>ComponentsModule&#45;&gt;ConfirmDialogComponent </title>
<path fill="none" stroke="black" stroke-dasharray="5,2" d="M808.43,-171C967.71,-171 1362.62,-171 1362.62,-171 1362.62,-171 1362.62,-205.78 1362.62,-205.78"/>
<polygon fill="black" stroke="black" points="1359.13,-205.78 1362.62,-215.78 1366.13,-205.78 1359.13,-205.78"/>
</g>
<!-- DefaultLoginLayoutComponent  -->
<g id="node13" class="node">
<title>DefaultLoginLayoutComponent </title>
<polygon fill="#fb8072" stroke="black" points="1294.91,-252 1095.09,-252 1095.09,-216 1294.91,-216 1294.91,-252"/>
<text text-anchor="middle" x="1195" y="-229.8" font-family="Times,serif" font-size="14.00">DefaultLoginLayoutComponent </text>
</g>
<!-- ComponentsModule&#45;&gt;DefaultLoginLayoutComponent  -->
<g id="edge12" class="edge">
<title>ComponentsModule&#45;&gt;DefaultLoginLayoutComponent </title>
<path fill="none" stroke="black" stroke-dasharray="5,2" d="M808.33,-175C925.93,-175 1161.12,-175 1161.12,-175 1161.12,-175 1161.12,-205.98 1161.12,-205.98"/>
<polygon fill="black" stroke="black" points="1157.63,-205.98 1161.12,-215.98 1164.63,-205.98 1157.63,-205.98"/>
</g>
<!-- ErrorComponent  -->
<g id="node14" class="node">
<title>ErrorComponent </title>
<polygon fill="#fb8072" stroke="black" points="1077.37,-252 962.63,-252 962.63,-216 1077.37,-216 1077.37,-252"/>
<text text-anchor="middle" x="1020" y="-229.8" font-family="Times,serif" font-size="14.00">ErrorComponent </text>
</g>
<!-- ComponentsModule&#45;&gt;ErrorComponent  -->
<g id="edge13" class="edge">
<title>ComponentsModule&#45;&gt;ErrorComponent </title>
<path fill="none" stroke="black" stroke-dasharray="5,2" d="M808.23,-179C880.7,-179 987.62,-179 987.62,-179 987.62,-179 987.62,-205.99 987.62,-205.99"/>
<polygon fill="black" stroke="black" points="984.13,-205.99 987.62,-215.99 991.13,-205.99 984.13,-205.99"/>
</g>
<!-- FooterComponent  -->
<g id="node15" class="node">
<title>FooterComponent </title>
<polygon fill="#fb8072" stroke="black" points="944.88,-252 823.12,-252 823.12,-216 944.88,-216 944.88,-252"/>
<text text-anchor="middle" x="884" y="-229.8" font-family="Times,serif" font-size="14.00">FooterComponent </text>
</g>
<!-- ComponentsModule&#45;&gt;FooterComponent  -->
<g id="edge14" class="edge">
<title>ComponentsModule&#45;&gt;FooterComponent </title>
<path fill="none" stroke="black" stroke-dasharray="5,2" d="M808.31,-183C832.26,-183 853.62,-183 853.62,-183 853.62,-183 853.62,-205.88 853.62,-205.88"/>
<polygon fill="black" stroke="black" points="850.13,-205.88 853.62,-215.88 857.13,-205.88 850.13,-205.88"/>
</g>
<!-- HeaderComponent  -->
<g id="node16" class="node">
<title>HeaderComponent </title>
<polygon fill="#fb8072" stroke="black" points="805.74,-252 680.26,-252 680.26,-216 805.74,-216 805.74,-252"/>
<text text-anchor="middle" x="743" y="-229.8" font-family="Times,serif" font-size="14.00">HeaderComponent </text>
</g>
<!-- ComponentsModule&#45;&gt;HeaderComponent  -->
<g id="edge15" class="edge">
<title>ComponentsModule&#45;&gt;HeaderComponent </title>
<path fill="none" stroke="black" stroke-dasharray="5,2" d="M743,-187.11C743,-187.11 743,-205.99 743,-205.99"/>
<polygon fill="black" stroke="black" points="739.5,-205.99 743,-215.99 746.5,-205.99 739.5,-205.99"/>
</g>
<!-- LoadingComponent  -->
<g id="node17" class="node">
<title>LoadingComponent </title>
<polygon fill="#fb8072" stroke="black" points="662.99,-252 531.01,-252 531.01,-216 662.99,-216 662.99,-252"/>
<text text-anchor="middle" x="597" y="-229.8" font-family="Times,serif" font-size="14.00">LoadingComponent </text>
</g>
<!-- ComponentsModule&#45;&gt;LoadingComponent  -->
<g id="edge16" class="edge">
<title>ComponentsModule&#45;&gt;LoadingComponent </title>
<path fill="none" stroke="black" stroke-dasharray="5,2" d="M677.81,-183C659.48,-183 644.44,-183 644.44,-183 644.44,-183 644.44,-205.88 644.44,-205.88"/>
<polygon fill="black" stroke="black" points="640.94,-205.88 644.44,-215.88 647.94,-205.88 640.94,-205.88"/>
</g>
<!-- NavbarComponent  -->
<g id="node18" class="node">
<title>NavbarComponent </title>
<polygon fill="#fb8072" stroke="black" points="513.03,-252 386.97,-252 386.97,-216 513.03,-216 513.03,-252"/>
<text text-anchor="middle" x="450" y="-229.8" font-family="Times,serif" font-size="14.00">NavbarComponent </text>
</g>
<!-- ComponentsModule&#45;&gt;NavbarComponent  -->
<g id="edge17" class="edge">
<title>ComponentsModule&#45;&gt;NavbarComponent </title>
<path fill="none" stroke="black" stroke-dasharray="5,2" d="M677.59,-179C604.57,-179 496.51,-179 496.51,-179 496.51,-179 496.51,-205.99 496.51,-205.99"/>
<polygon fill="black" stroke="black" points="493.01,-205.99 496.51,-215.99 500.01,-205.99 493.01,-205.99"/>
</g>
<!-- PrimaryInputComponent  -->
<g id="node19" class="node">
<title>PrimaryInputComponent </title>
<polygon fill="#fb8072" stroke="black" points="368.98,-252 209.02,-252 209.02,-216 368.98,-216 368.98,-252"/>
<text text-anchor="middle" x="289" y="-229.8" font-family="Times,serif" font-size="14.00">PrimaryInputComponent </text>
</g>
<!-- ComponentsModule&#45;&gt;PrimaryInputComponent  -->
<g id="edge18" class="edge">
<title>ComponentsModule&#45;&gt;PrimaryInputComponent </title>
<path fill="none" stroke="black" stroke-dasharray="5,2" d="M677.49,-175C566.7,-175 354.24,-175 354.24,-175 354.24,-175 354.24,-205.98 354.24,-205.98"/>
<polygon fill="black" stroke="black" points="350.74,-205.98 354.24,-215.98 357.74,-205.98 350.74,-205.98"/>
</g>
<!-- SidebarComponent  -->
<g id="node20" class="node">
<title>SidebarComponent </title>
<polygon fill="#fb8072" stroke="black" points="190.6,-252 63.4,-252 63.4,-216 190.6,-216 190.6,-252"/>
<text text-anchor="middle" x="127" y="-229.8" font-family="Times,serif" font-size="14.00">SidebarComponent </text>
</g>
<!-- ComponentsModule&#45;&gt;SidebarComponent  -->
<g id="edge19" class="edge">
<title>ComponentsModule&#45;&gt;SidebarComponent </title>
<path fill="none" stroke="black" stroke-dasharray="5,2" d="M677.68,-171C529.06,-171 178.4,-171 178.4,-171 178.4,-171 178.4,-205.78 178.4,-205.78"/>
<polygon fill="black" stroke="black" points="174.9,-205.78 178.4,-215.78 181.9,-205.78 174.9,-205.78"/>
</g>
<!-- CoreModule -->
<g id="node11" class="node">
<title>CoreModule</title>
<polygon fill="#8dd3c7" stroke="black" points="1522.26,-122 1519.26,-126 1498.26,-126 1495.26,-122 1435.74,-122 1435.74,-86 1522.26,-86 1522.26,-122"/>
<text text-anchor="middle" x="1479" y="-99.8" font-family="Times,serif" font-size="14.00">CoreModule</text>
</g>
<!-- CoreModule&#45;&gt;ComponentsModule -->
<g id="edge10" class="edge">
<title>CoreModule&#45;&gt;ComponentsModule</title>
<path fill="none" stroke="black" d="M1459.4,-122.22C1459.4,-140.83 1459.4,-167 1459.4,-167 1459.4,-167 818.48,-167 818.48,-167"/>
<polygon fill="black" stroke="black" points="818.48,-163.5 808.48,-167 818.48,-170.5 818.48,-163.5"/>
</g>
</g>
</svg>
